ffmpeg started on 2025-06-06 at 19:10:49
Report written to "D:\Convert\FFMetrics\reports\ssim_report-6.txt"
Log level: 32
Command line:
ffmpeg -hide_banner -nostdin -i "G:\\\xc0\xed\xe8\xec\xe5\\\xce\xed\xe3\xee\xe8\xed\xe3\xe8\\!_36_\xce\xf1\xe5\xed\xfc_2024\\DreamCast\\\xd0\xee\xed \xca\xe0\xec\xee\xed\xee\xf5\xe0\xf1\xe8 - \xcd\xe5\xe2\xec\xe5\xed\xff\xe5\xec\xfb\xe9 \xe4\xe5\xf2\xe5\xea\xf2\xe8\xe2\\\xd2\xc2-1\\[DC] Kamonohashi Ron no Kindan Suiri - 02_Telegram_HEVC.mkv" -i "G:\\\xc0\xed\xe8\xec\xe5\\\xce\xed\xe3\xee\xe8\xed\xe3\xe8\\!_36_\xce\xf1\xe5\xed\xfc_2024\\DreamCast\\\xd0\xee\xed \xca\xe0\xec\xee\xed\xee\xf5\xe0\xf1\xe8 - \xcd\xe5\xe2\xec\xe5\xed\xff\xe5\xec\xfb\xe9 \xe4\xe5\xf2\xe5\xea\xf2\xe8\xe2\\\xd2\xc2-1\\[DC] Kamonohashi Ron no Kindan Suiri - 02_Telegram.mp4" -lavfi "[0:v]settb=AVTB,setpts=PTS-STARTPTS,format=pix_fmts=yuv420p10,fps=24000/1001,scale=1920:1080:flags=bicubic[main];[1:v]settb=AVTB,setpts=PTS-STARTPTS,format=pix_fmts=yuv420p,fps=24000/1001,scale=1920:1080:flags=bicubic[ref];[main][ref]ssim=eof_action=endall:stats_file='D\\:/Convert/FFMetrics/logs/ssim_logfile-6.txt'" -f null -
Input #0, matroska,webm, from 'G:\Аниме\Онгоинги\!_36_Осень_2024\DreamCast\Рон Камонохаси - Невменяемый детектив\ТВ-1\[DC] Kamonohashi Ron no Kindan Suiri - 02_Telegram_HEVC.mkv':
  Metadata:
    COMPATIBLE_BRANDS: isomiso2avc1mp41
    MAJOR_BRAND     : isom
    MINOR_VERSION   : 512
    ENCODER         : Lavf61.7.100
  Duration: 00:23:46.73, start: -0.021000, bitrate: 818 kb/s
  Stream #0:0: Video: hevc (Main 10), yuv420p10le(tv, bt709, progressive), 1920x1080 [SAR 1:1 DAR 16:9], 23.98 fps, 23.98 tbr, 1k tbn (default)
      Metadata:
        HANDLER_NAME    : VideoHandler
        VENDOR_ID       : [0][0][0][0]
        ENCODER         : Lavc61.19.100 libx265
        BPS             : 620883
        DURATION        : 00:23:46.549708333
        NUMBER_OF_FRAMES: 34203
        NUMBER_OF_BYTES : 110715147
        _STATISTICS_WRITING_APP: mkvpropedit v66.0.0 ('Josie') 64-bit
        _STATISTICS_WRITING_DATE_UTC: 2025-06-03 14:19:38
        _STATISTICS_TAGS: BPS DURATION NUMBER_OF_FRAMES NUMBER_OF_BYTES
  Stream #0:1: Audio: aac (LC), 48000 Hz, stereo, fltp (default)
      Metadata:
        HANDLER_NAME    : SoundHandler
        VENDOR_ID       : [0][0][0][0]
        ENCODER         : Lavc61.19.100 aac
        BPS             : 193184
        DURATION        : 00:23:46.730000000
        NUMBER_OF_FRAMES: 66879
        NUMBER_OF_BYTES : 34452712
        _STATISTICS_WRITING_APP: mkvpropedit v66.0.0 ('Josie') 64-bit
        _STATISTICS_WRITING_DATE_UTC: 2025-06-03 14:19:38
        _STATISTICS_TAGS: BPS DURATION NUMBER_OF_FRAMES NUMBER_OF_BYTES
Input #1, mov,mp4,m4a,3gp,3g2,mj2, from 'G:\Аниме\Онгоинги\!_36_Осень_2024\DreamCast\Рон Камонохаси - Невменяемый детектив\ТВ-1\[DC] Kamonohashi Ron no Kindan Suiri - 02_Telegram.mp4':
  Metadata:
    major_brand     : isom
    minor_version   : 512
    compatible_brands: isomiso2avc1mp41
    encoder         : Lavf60.12.100
  Duration: 00:23:46.68, start: 0.000000, bitrate: 3393 kb/s
  Stream #1:0[0x1](und): Video: h264 (High) (avc1 / 0x31637661), yuv420p(tv, bt709, progressive), 1920x1080 [SAR 1:1 DAR 16:9], 3245 kb/s, 23.98 fps, 23.98 tbr, 24k tbn (default)
      Metadata:
        handler_name    : VideoHandler
        vendor_id       : [0][0][0][0]
        encoder         : Lavc60.26.100 h264_qsv
  Stream #1:1[0x2](und): Audio: aac (HE-AACv2) (mp4a / 0x6134706D), 48000 Hz, stereo, fltp, 144 kb/s (default)
      Metadata:
        handler_name    : SoundHandler
        vendor_id       : [0][0][0][0]
Stream mapping:
  Stream #0:0 (hevc) -> settb:default
  Stream #1:0 (h264) -> settb:default
  ssim:default -> Stream #0:0 (wrapped_avframe)
  Stream #0:1 -> #0:1 (aac (native) -> pcm_s16le (native))
Output #0, null, to 'pipe:':
  Metadata:
    COMPATIBLE_BRANDS: isomiso2avc1mp41
    MAJOR_BRAND     : isom
    MINOR_VERSION   : 512
    encoder         : Lavf61.7.100
  Stream #0:0: Video: wrapped_avframe, yuv420p10le(tv, bt709, progressive), 1920x1080 [SAR 1:1 DAR 16:9], q=2-31, 200 kb/s, 23.98 fps, 23.98 tbn
      Metadata:
        encoder         : Lavc61.19.100 wrapped_avframe
  Stream #0:1: Audio: pcm_s16le, 48000 Hz, stereo, s16, 1536 kb/s (default)
      Metadata:
        HANDLER_NAME    : SoundHandler
        VENDOR_ID       : [0][0][0][0]
        _STATISTICS_TAGS: BPS DURATION NUMBER_OF_FRAMES NUMBER_OF_BYTES
        BPS             : 193184
        DURATION        : 00:23:46.730000000
        NUMBER_OF_FRAMES: 66879
        NUMBER_OF_BYTES : 34452712
        _STATISTICS_WRITING_APP: mkvpropedit v66.0.0 ('Josie') 64-bit
        _STATISTICS_WRITING_DATE_UTC: 2025-06-03 14:19:38
        encoder         : Lavc61.19.100 pcm_s16le
frame=  178 fps=0.0 q=-0.0 size=N/A time=00:00:07.42 bitrate=N/A speed=14.3x    frame=  380 fps=370 q=-0.0 size=N/A time=00:00:15.84 bitrate=N/A speed=15.4x    frame=  663 fps=429 q=-0.0 size=N/A time=00:00:27.65 bitrate=N/A speed=17.9x    frame=  936 fps=456 q=-0.0 size=N/A time=00:00:39.03 bitrate=N/A speed=  19x    frame= 1219 fps=473 q=-0.0 size=N/A time=00:00:50.84 bitrate=N/A speed=19.7x    frame= 1456 fps=472 q=-0.0 size=N/A time=00:01:00.72 bitrate=N/A speed=19.7x    frame= 1713 fps=475 q=-0.0 size=N/A time=00:01:11.44 bitrate=N/A speed=19.8x    frame= 1942 fps=471 q=-0.0 size=N/A time=00:01:20.99 bitrate=N/A speed=19.7x    frame= 2188 fps=472 q=-0.0 size=N/A time=00:01:31.25 bitrate=N/A speed=19.7x    frame= 2431 fps=472 q=-0.0 size=N/A time=00:01:41.39 bitrate=N/A speed=19.7x    frame= 2681 fps=473 q=-0.0 size=N/A time=00:01:51.82 bitrate=N/A speed=19.7x    frame= 2870 fps=464 q=-0.0 size=N/A time=00:01:59.70 bitrate=N/A speed=19.3x    frame= 3121 fps=466 q=-0.0 size=N/A time=00:02:10.17 bitrate=N/A speed=19.4x    frame= 3385 fps=469 q=-0.0 size=N/A time=00:02:21.18 bitrate=N/A speed=19.6x    frame= 3625 fps=469 q=-0.0 size=N/A time=00:02:31.19 bitrate=N/A speed=19.6x    frame= 3894 fps=472 q=-0.0 size=N/A time=00:02:42.41 bitrate=N/A speed=19.7x    frame= 4181 fps=477 q=-0.0 size=N/A time=00:02:54.38 bitrate=N/A speed=19.9x    frame= 4461 fps=481 q=-0.0 size=N/A time=00:03:06.06 bitrate=N/A speed=20.1x    frame= 4725 fps=482 q=-0.0 size=N/A time=00:03:17.07 bitrate=N/A speed=20.1x    frame= 4954 fps=481 q=-0.0 size=N/A time=00:03:26.62 bitrate=N/A speed=  20x    frame= 5199 fps=480 q=-0.0 size=N/A time=00:03:36.84 bitrate=N/A speed=  20x    frame= 5470 fps=483 q=-0.0 size=N/A time=00:03:48.14 bitrate=N/A speed=20.1x    frame= 5671 fps=478 q=-0.0 size=N/A time=00:03:56.52 bitrate=N/A speed=19.9x    frame= 5967 fps=482 q=-0.0 size=N/A time=00:04:08.87 bitrate=N/A speed=20.1x    frame= 6232 fps=484 q=-0.0 size=N/A time=00:04:19.92 bitrate=N/A speed=20.2x    frame= 6474 fps=483 q=-0.0 size=N/A time=00:04:30.01 bitrate=N/A speed=20.1x    frame= 6727 fps=483 q=-0.0 size=N/A time=00:04:40.57 bitrate=N/A speed=20.2x    frame= 6999 fps=485 q=-0.0 size=N/A time=00:04:51.91 bitrate=N/A speed=20.2x    frame= 7285 fps=487 q=-0.0 size=N/A time=00:05:03.84 bitrate=N/A speed=20.3x    frame= 7570 fps=489 q=-0.0 size=N/A time=00:05:15.73 bitrate=N/A speed=20.4x    frame= 7835 fps=490 q=-0.0 size=N/A time=00:05:26.78 bitrate=N/A speed=20.4x    frame= 8068 fps=489 q=-0.0 size=N/A time=00:05:36.50 bitrate=N/A speed=20.4x    frame= 8344 fps=490 q=-0.0 size=N/A time=00:05:48.01 bitrate=N/A speed=20.5x    frame= 8617 fps=492 q=-0.0 size=N/A time=00:05:59.40 bitrate=N/A speed=20.5x    frame= 8871 fps=492 q=-0.0 size=N/A time=00:06:09.99 bitrate=N/A speed=20.5x    frame= 9120 fps=492 q=-0.0 size=N/A time=00:06:20.38 bitrate=N/A speed=20.5x    frame= 9336 fps=489 q=-0.0 size=N/A time=00:06:29.38 bitrate=N/A speed=20.4x    frame= 9606 fps=490 q=-0.0 size=N/A time=00:06:40.65 bitrate=N/A speed=20.5x    frame= 9880 fps=491 q=-0.0 size=N/A time=00:06:52.07 bitrate=N/A speed=20.5x    frame=10160 fps=493 q=-0.0 size=N/A time=00:07:03.75 bitrate=N/A speed=20.5x    frame=10422 fps=493 q=-0.0 size=N/A time=00:07:14.68 bitrate=N/A speed=20.6x    frame=10649 fps=492 q=-0.0 size=N/A time=00:07:24.15 bitrate=N/A speed=20.5x    frame=10903 fps=492 q=-0.0 size=N/A time=00:07:34.74 bitrate=N/A speed=20.5x    frame=11159 fps=492 q=-0.0 size=N/A time=00:07:45.42 bitrate=N/A speed=20.5x    frame=11406 fps=492 q=-0.0 size=N/A time=00:07:55.72 bitrate=N/A speed=20.5x    frame=11692 fps=493 q=-0.0 size=N/A time=00:08:07.65 bitrate=N/A speed=20.6x    frame=11922 fps=492 q=-0.0 size=N/A time=00:08:17.24 bitrate=N/A speed=20.5x    frame=12188 fps=493 q=-0.0 size=N/A time=00:08:28.34 bitrate=N/A speed=20.5x    frame=12462 fps=493 q=-0.0 size=N/A time=00:08:39.76 bitrate=N/A speed=20.6x    frame=12717 fps=493 q=-0.0 size=N/A time=00:08:50.40 bitrate=N/A speed=20.6x    frame=13001 fps=495 q=-0.0 size=N/A time=00:09:02.25 bitrate=N/A speed=20.6x    frame=13252 fps=494 q=-0.0 size=N/A time=00:09:12.71 bitrate=N/A speed=20.6x    frame=13516 fps=495 q=-0.0 size=N/A time=00:09:23.72 bitrate=N/A speed=20.6x    frame=13771 fps=495 q=-0.0 size=N/A time=00:09:34.36 bitrate=N/A speed=20.6x    frame=14053 fps=496 q=-0.0 size=N/A time=00:09:46.12 bitrate=N/A speed=20.7x    frame=14320 fps=496 q=-0.0 size=N/A time=00:09:57.26 bitrate=N/A speed=20.7x    frame=14593 fps=497 q=-0.0 size=N/A time=00:10:08.64 bitrate=N/A speed=20.7x    frame=14861 fps=497 q=-0.0 size=N/A time=00:10:19.82 bitrate=N/A speed=20.7x    frame=15137 fps=498 q=-0.0 size=N/A time=00:10:31.33 bitrate=N/A speed=20.8x    frame=15427 fps=499 q=-0.0 size=N/A time=00:10:43.43 bitrate=N/A speed=20.8x    frame=15670 fps=498 q=-0.0 size=N/A time=00:10:53.56 bitrate=N/A speed=20.8x    frame=15900 fps=497 q=-0.0 size=N/A time=00:11:03.16 bitrate=N/A speed=20.7x    frame=16180 fps=498 q=-0.0 size=N/A time=00:11:14.84 bitrate=N/A speed=20.8x    frame=16457 fps=499 q=-0.0 size=N/A time=00:11:26.39 bitrate=N/A speed=20.8x    frame=16716 fps=499 q=-0.0 size=N/A time=00:11:37.19 bitrate=N/A speed=20.8x    frame=17002 fps=500 q=-0.0 size=N/A time=00:11:49.12 bitrate=N/A speed=20.8x    frame=17238 fps=499 q=-0.0 size=N/A time=00:11:58.96 bitrate=N/A speed=20.8x    frame=17497 fps=499 q=-0.0 size=N/A time=00:12:09.77 bitrate=N/A speed=20.8x    frame=17783 fps=500 q=-0.0 size=N/A time=00:12:21.69 bitrate=N/A speed=20.8x    frame=18068 fps=501 q=-0.0 size=N/A time=00:12:33.58 bitrate=N/A speed=20.9x    frame=18308 fps=500 q=-0.0 size=N/A time=00:12:43.59 bitrate=N/A speed=20.9x    frame=18541 fps=499 q=-0.0 size=N/A time=00:12:53.31 bitrate=N/A speed=20.8x    frame=18803 fps=500 q=-0.0 size=N/A time=00:13:04.24 bitrate=N/A speed=20.8x    frame=19045 fps=499 q=-0.0 size=N/A time=00:13:14.33 bitrate=N/A speed=20.8x    frame=19308 fps=499 q=-0.0 size=N/A time=00:13:25.30 bitrate=N/A speed=20.8x    frame=19577 fps=500 q=-0.0 size=N/A time=00:13:36.52 bitrate=N/A speed=20.8x    frame=19858 fps=500 q=-0.0 size=N/A time=00:13:48.24 bitrate=N/A speed=20.9x    frame=20141 fps=501 q=-0.0 size=N/A time=00:14:00.04 bitrate=N/A speed=20.9x    frame=20418 fps=501 q=-0.0 size=N/A time=00:14:11.60 bitrate=N/A speed=20.9x    frame=20708 fps=502 q=-0.0 size=N/A time=00:14:23.69 bitrate=N/A speed=20.9x    frame=20990 fps=502 q=-0.0 size=N/A time=00:14:35.45 bitrate=N/A speed=  21x    frame=21269 fps=503 q=-0.0 size=N/A time=00:14:47.09 bitrate=N/A speed=  21x    frame=21548 fps=503 q=-0.0 size=N/A time=00:14:58.73 bitrate=N/A speed=  21x    frame=21821 fps=504 q=-0.0 size=N/A time=00:15:10.11 bitrate=N/A speed=  21x    frame=22044 fps=503 q=-0.0 size=N/A time=00:15:19.41 bitrate=N/A speed=  21x    frame=22310 fps=503 q=-0.0 size=N/A time=00:15:30.51 bitrate=N/A speed=  21x    frame=22563 fps=503 q=-0.0 size=N/A time=00:15:41.06 bitrate=N/A speed=  21x    frame=22815 fps=503 q=-0.0 size=N/A time=00:15:51.57 bitrate=N/A speed=  21x    frame=23071 fps=503 q=-0.0 size=N/A time=00:16:02.25 bitrate=N/A speed=  21x    frame=23319 fps=502 q=-0.0 size=N/A time=00:16:12.59 bitrate=N/A speed=20.9x    frame=23549 fps=502 q=-0.0 size=N/A time=00:16:22.18 bitrate=N/A speed=20.9x    frame=23830 fps=502 q=-0.0 size=N/A time=00:16:33.90 bitrate=N/A speed=20.9x    frame=24070 fps=502 q=-0.0 size=N/A time=00:16:43.91 bitrate=N/A speed=20.9x    frame=24361 fps=502 q=-0.0 size=N/A time=00:16:56.05 bitrate=N/A speed=  21x    frame=24624 fps=502 q=-0.0 size=N/A time=00:17:07.02 bitrate=N/A speed=  21x    frame=24879 fps=502 q=-0.0 size=N/A time=00:17:17.66 bitrate=N/A speed=  21x    frame=25132 fps=502 q=-0.0 size=N/A time=00:17:28.21 bitrate=N/A speed=20.9x    frame=25395 fps=502 q=-0.0 size=N/A time=00:17:39.18 bitrate=N/A speed=20.9x    frame=25611 fps=501 q=-0.0 size=N/A time=00:17:48.19 bitrate=N/A speed=20.9x    frame=25838 fps=501 q=-0.0 size=N/A time=00:17:57.65 bitrate=N/A speed=20.9x    frame=26036 fps=500 q=-0.0 size=N/A time=00:18:05.91 bitrate=N/A speed=20.8x    frame=26280 fps=499 q=-0.0 size=N/A time=00:18:16.09 bitrate=N/A speed=20.8x    frame=26527 fps=499 q=-0.0 size=N/A time=00:18:26.39 bitrate=N/A speed=20.8x    frame=26778 fps=499 q=-0.0 size=N/A time=00:18:36.86 bitrate=N/A speed=20.8x    frame=27046 fps=499 q=-0.0 size=N/A time=00:18:48.04 bitrate=N/A speed=20.8x    frame=27330 fps=500 q=-0.0 size=N/A time=00:18:59.88 bitrate=N/A speed=20.8x    frame=27604 fps=500 q=-0.0 size=N/A time=00:19:11.31 bitrate=N/A speed=20.9x    frame=27896 fps=501 q=-0.0 size=N/A time=00:19:23.49 bitrate=N/A speed=20.9x    frame=28175 fps=501 q=-0.0 size=N/A time=00:19:35.13 bitrate=N/A speed=20.9x    frame=28422 fps=501 q=-0.0 size=N/A time=00:19:45.43 bitrate=N/A speed=20.9x    frame=28667 fps=501 q=-0.0 size=N/A time=00:19:55.65 bitrate=N/A speed=20.9x    frame=28921 fps=501 q=-0.0 size=N/A time=00:20:06.24 bitrate=N/A speed=20.9x    frame=29222 fps=501 q=-0.0 size=N/A time=00:20:18.80 bitrate=N/A speed=20.9x    frame=29510 fps=502 q=-0.0 size=N/A time=00:20:30.81 bitrate=N/A speed=20.9x    frame=29771 fps=502 q=-0.0 size=N/A time=00:20:41.69 bitrate=N/A speed=20.9x    frame=30009 fps=502 q=-0.0 size=N/A time=00:20:51.62 bitrate=N/A speed=20.9x    frame=30294 fps=502 q=-0.0 size=N/A time=00:21:03.51 bitrate=N/A speed=20.9x    frame=30583 fps=502 q=-0.0 size=N/A time=00:21:15.56 bitrate=N/A speed=  21x    frame=30880 fps=503 q=-0.0 size=N/A time=00:21:27.95 bitrate=N/A speed=  21x    frame=31159 fps=503 q=-0.0 size=N/A time=00:21:39.58 bitrate=N/A speed=  21x    frame=31443 fps=504 q=-0.0 size=N/A time=00:21:51.43 bitrate=N/A speed=  21x    frame=31727 fps=504 q=-0.0 size=N/A time=00:22:03.28 bitrate=N/A speed=  21x    frame=32001 fps=504 q=-0.0 size=N/A time=00:22:14.70 bitrate=N/A speed=  21x    frame=32274 fps=505 q=-0.0 size=N/A time=00:22:26.09 bitrate=N/A speed=  21x    frame=32549 fps=505 q=-0.0 size=N/A time=00:22:37.56 bitrate=N/A speed=21.1x    frame=32819 fps=505 q=-0.0 size=N/A time=00:22:48.82 bitrate=N/A speed=21.1x    frame=33109 fps=505 q=-0.0 size=N/A time=00:23:00.92 bitrate=N/A speed=21.1x    frame=33379 fps=506 q=-0.0 size=N/A time=00:23:12.18 bitrate=N/A speed=21.1x    frame=33655 fps=506 q=-0.0 size=N/A time=00:23:23.69 bitrate=N/A speed=21.1x    frame=33902 fps=506 q=-0.0 size=N/A time=00:23:33.99 bitrate=N/A speed=21.1x    frame=34172 fps=506 q=-0.0 size=N/A time=00:23:45.25 bitrate=N/A speed=21.1x    [Parsed_ssim_10 @ 00000292bf57dd40] SSIM Y:0.995459 (23.428319) U:0.993371 (21.785293) V:0.994122 (22.307337) All:0.994888 (22.914015)
[out#0/null @ 00000292bed05580] video:14697KiB audio:267516KiB subtitle:0KiB other streams:0KiB global headers:0KiB muxing overhead: unknown
frame=34203 fps=506 q=-0.0 Lsize=N/A time=00:23:46.55 bitrate=N/A speed=21.1x    
